<!DOCTYPE svg PUBLIC "-//W3C//DTD SVG 1.1//EN" "http://www.w3.org/Graphics/SVG/1.1/DTD/svg11.dtd">
<!-- Uploaded to: SVG Repo, www.svgrepo.com, Transformed by: SVG Repo Mixer Tools -->
<svg fill="#e75a5a" width="800px" height="800px" viewBox="0 -0.5 17 17" xmlns="http://www.w3.org/2000/svg">
<g id="SVGRepo_bgCarrier" stroke-width="0"/>
<g id="SVGRepo_tracerCarrier" stroke-linecap="round" stroke-linejoin="round"/>
<g id="SVGRepo_iconCarrier">
<path fill-rule="evenodd" d="M15.35 8c0 3.377-2.945 6.25-6.75 6.25S1.85 11.377 1.85 8 4.795 1.75 8.6 1.75 15.35 4.623 15.35 8zm1.25 0c0 4.142-3.582 7.5-8 7.5S.6 12.142.6 8C.6 3.858 4.182.5 8.6.5s8 3.358 8 7.5zM9.229 3.101l-.014 7.3-1.25-.002.014-7.3 1.25.002zm.016 9.249a.65.65 0 1 0-1.3 0 .65.65 0 0 0 1.3 0z"/>
</g>
</svg>